REM DIRINDEX 1\6,1\2\7,1\2\8,1\2\9,1\3\10,1\3\11,1\4\12,1\4\13,1\4\14,1\5\15,1\5\16,1\5\17
REM DIRNAME folder01,folder02,folder03,folder04,folder05,folder06,folder07,folder08,folder09,folder10,folder11,folder12,folder13,folder14,folder15,folder16,folder17
TITLE ""
FILE "3Q_k_013-024.mp3" MP3
  TRACK 01 AUDIO
    TITLE "15:cjc041_1252"
    INDEX 01 00:00:00
  TRACK 02 AUDIO
    TITLE "0:"
    INDEX 01 00:01:58
  TRACK 03 AUDIO
    TITLE "16:cjc041_1253"
    INDEX 01 00:02:34
  TRACK 04 AUDIO
    TITLE "0:"
    INDEX 01 00:04:11
  TRACK 05 AUDIO
    TITLE "17:cjc041_1254"
    INDEX 01 00:04:60
  TRACK 06 AUDIO
    TITLE "17:cjc041_1255"
    INDEX 01 00:09:20
  TRACK 07 AUDIO
    TITLE "0:"
    INDEX 01 00:12:38
  TRACK 08 AUDIO
    TITLE "15:cjc041_1256"
    INDEX 01 00:13:16
  TRACK 09 AUDIO
    TITLE "0:"
    INDEX 01 00:15:01
  TRACK 10 AUDIO
    TITLE "16:cjc041_1257"
    INDEX 01 00:15:54
  TRACK 11 AUDIO
    TITLE "0:"
    INDEX 01 00:17:02
  TRACK 12 AUDIO
    TITLE "17:cjc041_1258"
    INDEX 01 00:17:53
  TRACK 13 AUDIO
    TITLE "17:cjc041_1259"
    INDEX 01 00:21:70
  TRACK 14 AUDIO
    TITLE "0:"
    INDEX 01 00:25:07
  TRACK 15 AUDIO
    TITLE "15:cjc041_1260"
    INDEX 01 00:25:56
  TRACK 16 AUDIO
    TITLE "0:"
    INDEX 01 00:27:55
  TRACK 17 AUDIO
    TITLE "16:cjc041_1261"
    INDEX 01 00:28:31
  TRACK 18 AUDIO
    TITLE "0:"
    INDEX 01 00:31:67
  TRACK 19 AUDIO
    TITLE "17:cjc041_1262"
    INDEX 01 00:32:47
  TRACK 20 AUDIO
    TITLE "17:cjc041_1263"
    INDEX 01 00:34:73
  TRACK 21 AUDIO
    TITLE "0:"
    INDEX 01 00:36:13
  TRACK 22 AUDIO
    TITLE "15:cjc041_1264"
    INDEX 01 00:36:70
  TRACK 23 AUDIO
    TITLE "0:"
    INDEX 01 00:38:31
  TRACK 24 AUDIO
    TITLE "16:cjc041_1265"
    INDEX 01 00:39:11
  TRACK 25 AUDIO
    TITLE "0:"
    INDEX 01 00:42:55
  TRACK 26 AUDIO
    TITLE "17:cjc041_1266"
    INDEX 01 00:43:35
  TRACK 27 AUDIO
    TITLE "17:cjc041_1267"
    INDEX 01 00:45:35
  TRACK 28 AUDIO
    TITLE "0:"
    INDEX 01 00:46:56
  TRACK 29 AUDIO
    TITLE "15:cjc041_1268"
    INDEX 01 00:47:40
  TRACK 30 AUDIO
    TITLE "0:"
    INDEX 01 00:48:71
  TRACK 31 AUDIO
    TITLE "16:cjc041_1269"
    INDEX 01 00:49:45
  TRACK 32 AUDIO
    TITLE "0:"
    INDEX 01 00:53:17
  TRACK 33 AUDIO
    TITLE "17:cjc041_1270"
    INDEX 01 00:53:72
  TRACK 34 AUDIO
    TITLE "17:cjc041_1271"
    INDEX 01 00:55:46
  TRACK 35 AUDIO
    TITLE "0:"
    INDEX 01 00:57:70
  TRACK 36 AUDIO
    TITLE "15:cjc041_1272"
    INDEX 01 00:58:52
  TRACK 37 AUDIO
    TITLE "0:"
    INDEX 01 00:59:61
  TRACK 38 AUDIO
    TITLE "16:cjc041_1273"
    INDEX 01 01:00:43
  TRACK 39 AUDIO
    TITLE "0:"
    INDEX 01 01:04:74
  TRACK 40 AUDIO
    TITLE "17:cjc041_1274"
    INDEX 01 01:05:50
  TRACK 41 AUDIO
    TITLE "17:cjc041_1275"
    INDEX 01 01:09:54
  TRACK 42 AUDIO
    TITLE "0:"
    INDEX 01 01:11:70
  TRACK 43 AUDIO
    TITLE "15:cjc041_1276"
    INDEX 01 01:12:52
  TRACK 44 AUDIO
    TITLE "0:"
    INDEX 01 01:14:08
  TRACK 45 AUDIO
    TITLE "16:cjc041_1277"
    INDEX 01 01:14:65
  TRACK 46 AUDIO
    TITLE "0:"
    INDEX 01 01:18:43
  TRACK 47 AUDIO
    TITLE "17:cjc041_1278"
    INDEX 01 01:19:21
  TRACK 48 AUDIO
    TITLE "17:cjc041_1279"
    INDEX 01 01:21:69
  TRACK 49 AUDIO
    TITLE "0:"
    INDEX 01 01:23:40
  TRACK 50 AUDIO
    TITLE "15:cjc041_1280"
    INDEX 01 01:24:20
  TRACK 51 AUDIO
    TITLE "0:"
    INDEX 01 01:25:57
  TRACK 52 AUDIO
    TITLE "16:cjc041_1281"
    INDEX 01 01:26:34
  TRACK 53 AUDIO
    TITLE "0:"
    INDEX 01 01:28:37
  TRACK 54 AUDIO
    TITLE "17:cjc041_1282"
    INDEX 01 01:29:17
  TRACK 55 AUDIO
    TITLE "17:cjc041_1283"
    INDEX 01 01:32:17
  TRACK 56 AUDIO
    TITLE "0:"
    INDEX 01 01:35:59
  TRACK 57 AUDIO
    TITLE "15:cjc041_1284"
    INDEX 01 01:36:39
  TRACK 58 AUDIO
    TITLE "0:"
    INDEX 01 01:38:28
  TRACK 59 AUDIO
    TITLE "16:cjc041_1285"
    INDEX 01 01:39:14
  TRACK 60 AUDIO
    TITLE "0:"
    INDEX 01 01:41:46
  TRACK 61 AUDIO
    TITLE "17:cjc041_1286"
    INDEX 01 01:42:30
  TRACK 62 AUDIO
    TITLE "17:cjc041_1287"
    INDEX 01 01:44:58
  TRACK 63 AUDIO
    TITLE "0:"
    INDEX 01 01:49:37
  TRACK 64 AUDIO
    TITLE "15:cjc041_1288"
    INDEX 01 01:50:25
  TRACK 65 AUDIO
    TITLE "0:"
    INDEX 01 01:52:04
  TRACK 66 AUDIO
    TITLE "16:cjc041_1289"
    INDEX 01 01:52:61
  TRACK 67 AUDIO
    TITLE "0:"
    INDEX 01 01:54:52
  TRACK 68 AUDIO
    TITLE "17:cjc041_1290"
    INDEX 01 01:55:36
  TRACK 69 AUDIO
    TITLE "17:cjc041_1291"
    INDEX 01 01:59:32
  TRACK 70 AUDIO
    TITLE "0:"
    INDEX 01 02:01:13
  TRACK 71 AUDIO
    TITLE "15:cjc041_1292"
    INDEX 01 02:01:70
  TRACK 72 AUDIO
    TITLE "0:"
    INDEX 01 02:03:39
  TRACK 73 AUDIO
    TITLE "16:cjc041_1293"
    INDEX 01 02:04:25
  TRACK 74 AUDIO
    TITLE "0:"
    INDEX 01 02:06:32
  TRACK 75 AUDIO
    TITLE "17:cjc041_1294"
    INDEX 01 02:07:04
  TRACK 76 AUDIO
    TITLE "17:cjc041_1295"
    INDEX 01 02:09:07
  TRACK 77 AUDIO
    TITLE "0:"
    INDEX 01 02:10:55
  TRACK 78 AUDIO
    TITLE "15:cjc041_1296"
    INDEX 01 02:11:41
  TRACK 79 AUDIO
    TITLE "0:"
    INDEX 01 02:12:68
  TRACK 80 AUDIO
    TITLE "16:cjc041_1297"
    INDEX 01 02:13:52
  TRACK 81 AUDIO
    TITLE "0:"
    INDEX 01 02:15:62
  TRACK 82 AUDIO
    TITLE "17:cjc041_1298"
    INDEX 01 02:16:44
  TRACK 83 AUDIO
    TITLE "17:cjc041_1299"
    INDEX 01 02:18:35
  TRACK 84 AUDIO
    TITLE "0:"
    INDEX 01 02:20:40
